<?xml version="1.0" encoding="UTF-8" standalone="no"?>
<!-- Created with Inkscape (http://www.inkscape.org/) -->

<svg
   xmlns:dc="http://purl.org/dc/elements/1.1/"
   xmlns:cc="http://creativecommons.org/ns#"
   xmlns:rdf="http://www.w3.org/1999/02/22-rdf-syntax-ns#"
   xmlns:svg="http://www.w3.org/2000/svg"
   xmlns="http://www.w3.org/2000/svg"
   xmlns:sodipodi="http://sodipodi.sourceforge.net/DTD/sodipodi-0.dtd"
   xmlns:inkscape="http://www.inkscape.org/namespaces/inkscape"
   version="1.1"
   id="svg10"
   width="37.444195"
   height="47.848873"
   viewBox="0 0 37.444195 47.848873"
   sodipodi:docname="logo.svg"
   inkscape:version="0.92.2 (5c3e80d, 2017-08-06)">
  <metadata
     id="metadata16">
    <rdf:RDF>
      <cc:Work
         rdf:about="">
        <dc:format>image/svg+xml</dc:format>
        <dc:type
           rdf:resource="http://purl.org/dc/dcmitype/StillImage" />
        <dc:title></dc:title>
      </cc:Work>
    </rdf:RDF>
  </metadata>
  <defs
     id="defs14" />
  <sodipodi:namedview
     pagecolor="#ffffff"
     bordercolor="#666666"
     borderopacity="1"
     objecttolerance="10"
     gridtolerance="10"
     guidetolerance="10"
     inkscape:pageopacity="0"
     inkscape:pageshadow="2"
     inkscape:window-width="1536"
     inkscape:window-height="801"
     id="namedview12"
     showgrid="false"
     inkscape:zoom="6.905"
     inkscape:cx="35.193922"
     inkscape:cy="-12.02936"
     inkscape:window-x="-8"
     inkscape:window-y="-8"
     inkscape:window-maximized="1"
     inkscape:current-layer="svg10" />
  <path
     style="fill:#ffb380;stroke-width:0.36308914"
     d="m 7.4350071,45.626323 c -3.62509,-2.544718 -3.99398,-2.968716 -3.99398,-4.590623 0,-1.097281 -0.16502,-1.294831 -1.61886,-1.937931 -0.89038003,-0.393857 -1.70190003,-0.850453 -1.80338003,-1.01466 -0.10149,-0.164211 0.21852,-0.844861 0.71113,-1.51256 1.03377003,-1.401194 1.10515003,-1.899412 0.36064003,-2.5173 -0.83863003,-0.695995 -1.05920003,-2.674417 -0.43314003,-3.885071 0.30165,-0.583331 0.91048003,-2.196233 1.35296003,-3.584228 1.16114,-3.642398 1.68911,-4.513953 3.08866,-5.098726 1.18929,-0.496916 1.2467,-0.606228 1.2467,-2.373804 0,-1.834154 0.0101,-1.850611 0.9985,-1.626574 3.1190799,0.706997 3.1147499,0.707683 4.4478399,-0.705038 l 1.27081,-1.346726 -2.17854,0.271669 c -3.9276199,0.489783 -3.6242199,0.638907 -3.6843799,-1.810923 -0.0448,-1.824856 -0.28747,-2.581803 -1.49468,-4.6625241 -0.79265,-1.366194 -1.83062,-2.67814 -2.30658,-2.915436 -1.01631,-0.506682 -1.13296,-1.614442 -0.23,-2.184018 0.88554,-0.558582 1.92687,0.166424 1.83623,1.278435 -0.0976,1.196848 4.90288,5.3972851 6.4252299,5.3972851 0.57487,0 1.12214,-0.12443 1.21612,-0.27651 0.094,-0.15208 0.0374,-1.9750611 -0.12571,-4.0510681 -0.22456,-2.857652 -0.43727,-3.853276 -0.87565,-4.098603 -1.32265,-0.740194 -0.2179,-2.74652904 1.25494,-2.27907004 0.63767,0.202391 0.74709,0.455644 0.60119,1.39158204 -0.12956,0.831212 0.27894,2.211767 1.49351,5.047372 l 1.67184,3.9032081 1.28451,-0.01225 1.28448,-0.01225 1.66404,-3.9536731 c 1.095,-2.601664 1.56041,-4.13884 1.36101,-4.495159 -0.68499,-1.22399604 0.99063,-2.57917404 2.07563,-1.67870304 0.71262,0.59142 0.66309,1.27896004 -0.14834,2.05915804 -0.54211,0.521244 -0.72073,1.42056 -0.90427,4.552759 l -0.22872,3.9032081 h 1.4263 c 1.21802,0 1.82264,-0.33138 4.14047,-2.2693071 2.09947,-1.755364 2.74188,-2.515999 2.83654,-3.358574 0.10573,-0.941043 0.2706,-1.089268 1.21164,-1.089268 0.96824,0 1.08927,0.12103 1.08927,1.089268 0,0.841366 -0.17942,1.11482 -0.78834,1.201544 -0.53769,0.07658 -1.28321,0.94243 -2.34474,2.723169 -1.2924,2.1680531 -1.58186,3.0005911 -1.7066,4.9084921 -0.14122,2.159854 -0.19841,2.285505 -0.95404,2.095856 -0.44209,-0.110959 -2.0153,-0.284133 -3.49602,-0.384832 -1.92052,-0.130608 -2.34556,-0.09232 -1.48286,0.133585 0.66513,0.174168 1.64933,0.738225 2.18712,1.253457 0.95684,0.916706 1.01493,0.925612 2.71006,0.415451 1.4934,-0.449445 1.75952,-0.450353 1.9298,-0.0066 0.10865,0.283113 0.10209,0.669185 -0.0145,0.857937 -0.11665,0.188752 -0.11248,0.841249 0.009,1.449995 0.16629,0.83144 0.47071,1.161578 1.2236,1.326938 1.66583,0.365877 2.55438,1.739326 4.03523,6.237286 1.59519,4.845261 1.61498,4.99097 0.87143,6.416622 -0.51307,0.983738 -0.48265,1.113097 0.62399,2.654078 0.96848,1.348582 1.07441,1.67619 0.63237,1.955783 -0.29204,0.184718 -0.79253,0.338352 -1.11221,0.341409 -0.31967,0.0029 -1.10837,0.189326 -1.75267,0.413929 -0.96606,0.336769 -1.13538,0.552026 -0.96579,1.227772 0.43694,1.740907 -0.44296,2.952742 -3.80423,5.239298 -3.01596,2.051657 -4.31098,2.683689 -3.79794,1.853563 0.11837,-0.191526 1.59431,-1.25643 3.27987,-2.366459 3.14907,-2.073831 3.80954,-2.807439 3.80954,-4.231394 0,-1.153836 -1.67251,-3.435001 -3.2275,-4.402038 l -1.31111,-0.815368 2.58174,-0.230756 c 2.86949,-0.256475 4.38855,-1.020202 4.72926,-2.377695 0.14252,-0.567819 -0.33617,-2.578324 -1.33442,-5.604694 -1.33245,-4.039541 -1.7024,-4.794615 -2.56855,-5.242518 -1.60235,-0.828609 -2.90226,-0.625879 -4.9864,0.777661 -1.06248,0.715511 -2.00193,1.230768 -2.08768,1.145016 -0.0858,-0.08575 0.0913,-0.747617 0.39348,-1.470812 0.86314,-2.065778 0.71666,-3.959054 -0.38657,-4.996595 -0.8657,-0.814143 -1.30875,-0.897493 -5.9002,-1.109975 -6.01674,-0.278441 -6.88569,0.02075 -7.5715,2.60692 -0.35302,1.33122 -0.47075,1.480063 -0.66656,0.842687 -0.23228,-0.756153 -2.8192399,-2.089016 -3.2392899,-1.668964 -0.49681,0.496809 -0.1539,2.255451 0.53368,2.737052 0.6904,0.483584 0.62688,0.529194 -0.99111,0.711565 -2.06353,0.232589 -2.43563,0.681795 -3.7964,4.583062 -0.52994,1.519343 -1.20361,3.399864 -1.49704,4.178936 -1.10863003,2.943525 0.32273,4.500342 4.49733,4.891509 l 2.68342,0.251442 -1.46012,0.770061 c -1.44282,0.76094 -3.92276,1.206029 -4.34837,0.780424 -0.12075,-0.120753 0.31981,-0.419517 0.97902,-0.663916 l 1.19858,-0.444363 -1.08927,-0.316723 c -0.94196,-0.273885 -1.23406,-0.171937 -2.15991,0.753835 -0.58886,0.588807 -0.96354003,1.177668 -0.83263003,1.308581 0.13091003,0.130911 0.98099003,0.258693 1.88906003,0.283954 1.31982,0.03671 1.60402,0.155187 1.41667,0.590564 -0.92018,2.138486 -0.24737,3.506472 2.70982,5.509755 2.23339,1.512949 4.5416999,3.574013 3.9674999,3.542536 -0.2502,-0.01373 -1.8437199,-0.999845 -3.5411699,-2.191402 z M 36.213457,38.069026 c 0.57369,-0.206512 0.53657,-0.351602 -0.36309,-1.418855 -0.94292,-1.118576 -1.08796,-1.169819 -2.45449,-0.867191 l -1.45236,0.321631 1.41734,0.608998 c 1.76687,0.759191 1.52685,1.097455 -0.46169,0.65066 -1.66504,-0.374108 -1.92503,-0.07259 -0.68332,0.792475 0.78797,0.548962 2.32242,0.515292 3.99761,-0.08772 z m -7.45515,-18.199961 c 0.24941,-0.861426 0.38594,-1.633763 0.3034,-1.716302 -0.27176,-0.271755 -2.74595,0.780127 -2.75102,1.16957 -0.003,0.209507 -0.10863,0.789397 -0.23534,1.288644 l -0.23038,0.907723 0.96151,-0.880242 c 1.03478,-0.947311 1.30006,-0.613864 0.42844,0.538528 -0.78763,1.041328 -0.6682,1.412388 0.25687,0.79816 0.44718,-0.296918 1.01712,-1.244654 1.26652,-2.106081 z m -9.56778,-4.413954 c -0.0987,-0.159759 -0.49666,-0.290471 -0.88427,-0.290471 -0.38761,0 -0.70476,0.130712 -0.70476,0.290471 0,0.159759 0.39793,0.290472 0.88428,0.290472 0.48634,0 0.80349,-0.130713 0.70475,-0.290472 z m -0.53002,-2.335939 c 0.29183,-0.256676 -7.42277,-0.05774 -8.32079,0.21457 -0.4992499,0.151388 1.13466,0.194982 3.6309,0.09687 2.49623,-0.09811 4.60669,-0.238257 4.68989,-0.311444 z m 6.38432,0.209192 c -0.7988,-0.165225 -2.51439,-0.28039 -3.81244,-0.25592 l -2.36007,0.04449 2.72317,0.232262 c 4.13379,0.352577 5.22282,0.346 3.44934,-0.02083 z m -9.62186,34.400684 c 0,-0.06249 0.48602,-0.579243 1.08003,-1.148345 l 1.08003,-1.034732 -0.43346,1.148346 c -0.26304,0.696888 -0.68764,1.148344 -1.08002,1.148344 -0.35562,0 -0.64658,-0.05113 -0.64658,-0.113613 z m 2.45403,-1.501366 c -0.19992,-1.77369 0.0179,-3.468268 0.44582,-3.468268 0.15047,0 0.4816,0.742957 0.73583,1.651018 0.25425,0.908056 0.77751,2.051787 1.16281,2.541623 0.55459,0.705051 0.58979,0.890606 0.16893,0.890606 -0.29239,0 -0.63415,-0.408474 -0.75945,-0.907721 -0.1253,-0.499248 -0.3881,-0.907723 -0.584,-0.907723 -0.19589,0 -0.35617,0.408475 -0.35617,0.907723 0,1.540855 -0.62123,1.000938 -0.81377,-0.707258 z m -7.37744,-0.949307 c -0.5859199,-0.611562 -1.7602199,-1.419323 -2.6095599,-1.79503 -2.02252,-0.894655 -1.99313,-1.498338 0.0403,-0.828886 1.64891,0.54284 5.2273299,3.735847 4.1867899,3.735847 -0.30376,0 -1.03169,-0.500369 -1.6176,-1.111931 z m 14.31762,0.113436 c 0.55141,-1.022916 1.9348,-2.151151 3.49546,-2.850766 0.79879,-0.358082 1.5749,-0.714141 1.72467,-0.791236 0.14977,-0.0771 0.27232,0.03544 0.27232,0.250067 0,0.214632 -0.87574,0.884477 -1.94609,1.488541 -1.07034,0.604065 -2.23939,1.422413 -2.59789,1.818551 -0.80581,0.890407 -1.41195,0.944627 -0.94847,0.08484 z m -8.66803,-4.119309 c -0.69895,-0.205893 -1.47231,-0.636604 -1.71858,-0.957135 -0.36466,-0.474623 -0.61519,-0.506498 -1.34988,-0.171752 -0.86823,0.395593 -0.89404,0.370605 -0.68689,-0.665118 0.16792,-0.83961 0.0855,-1.076153 -0.37479,-1.076153 -0.32451,0 -0.9073,-0.317281 -1.29509,-0.705068 -0.8305099,-0.830516 -2.2691899,-5.226825 -1.9676299,-6.012683 0.29975,-0.781108 0.94734,-0.673686 0.69683,0.115589 -0.22154,0.698013 0.9623299,4.547604 1.6553199,5.382601 0.54728,0.659438 2.29838,0.628082 2.86218,-0.05125 0.77785,-0.937249 1.0093,-0.608178 0.95767,1.361584 l -0.0499,1.906218 2.72317,0.212908 c 3.30329,0.258266 3.77186,0.154375 4.37344,-0.969669 0.38571,-0.720707 0.38284,-1.038929 -0.0161,-1.784315 -0.59367,-1.109277 -0.23486,-1.585614 0.63289,-0.840206 1.78059,1.529549 3.05219,0.980399 4.07791,-1.761076 0.43331,-1.158113 0.71696,-2.476385 0.63034,-2.929493 -0.0866,-0.453108 -0.0116,-0.823833 0.16665,-0.823833 0.66501,0 0.70108,1.092554 0.10607,3.213124 -0.63327,2.25697 -1.61861,3.685569 -2.54204,3.685569 -0.34653,0 -0.53049,0.375039 -0.53049,1.081484 0,1.018377 -0.0524,1.057635 -0.89704,0.672763 -0.76767,-0.34977 -0.99023,-0.293785 -1.54314,0.388146 -0.76596,0.944715 -3.87494,1.327501 -5.91088,0.727765 z m 1.08927,-1.417801 c 0,-0.199699 0.57186,-0.363089 1.2708,-0.363089 0.69895,0 1.27082,0.16339 1.27082,0.363089 0,0.199699 -0.57187,0.363089 -1.27082,0.363089 -0.69894,0 -1.2708,-0.16339 -1.2708,-0.363089 z m 0.59488,-4.175525 c -0.11496,-0.299548 -0.43389,-0.544634 -0.70876,-0.544634 -0.27487,0 -0.79549,-0.32678 -1.15693,-0.726178 -0.36145,-0.399398 -0.9178,-0.72868 -1.23632,-0.731738 -0.43432,-0.0042 -0.46352,-0.07893 -0.11676,-0.299002 0.2543,-0.161393 0.53019,-0.645622 0.61308,-1.076064 0.0829,-0.430441 0.30279,-1.054352 0.48865,-1.386469 0.18587,-0.332117 0.24927,-0.94827 0.1409,-1.369229 -0.163,-0.633192 -0.10627,-0.691081 0.32848,-0.335181 0.30891,0.25287 1.3628,0.38367 2.55675,0.317321 1.34278,-0.07462 2.021,0.0257 2.00104,0.295979 -0.0594,0.804518 0.8868,3.495116 1.22914,3.495116 0.192,0 0.34909,0.173033 0.34909,0.384517 0,0.211485 -0.14827,0.292881 -0.32949,0.180881 -0.37244,-0.230182 -3.3014,1.580318 -3.3014,2.040721 0,0.510362 -0.6374,0.327467 -0.85747,-0.24604 z m -7.44862,-0.934835 c -0.29173,-0.836868 -0.28286,-1.080941 0.0354,-0.974836 0.49274,0.164248 1.09158,2.091216 0.64988,2.091216 -0.16289,0 -0.47129,-0.502371 -0.68534,-1.11638 z m 14.85457,0.550371 c -0.007,-0.411155 0.22702,-1.064715 0.52022,-1.452357 0.71881,-0.95036 0.72766,0.03948 0.0115,1.292187 -0.47436,0.829819 -0.52,0.843565 -0.53176,0.16017 z M 2.3517571,30.72647 c 0,-0.227751 0.31653,-1.085549 0.70339,-1.906218 0.38686,-0.820669 0.80274,-2.104839 0.92418,-2.85371 0.12143,-0.748872 0.35278,-1.361584 0.51412,-1.361584 0.53666,0 -0.0502,3.797207 -0.73823,4.776208 -0.3725,0.530076 -0.67728,1.142788 -0.67728,1.361585 0,0.218796 -0.16339,0.397811 -0.36309,0.397811 -0.1997,0 -0.36309,-0.186341 -0.36309,-0.414092 z m 22.6022999,0.151435 c -1.29815,-0.161099 -1.55547,-0.658516 -0.512,-0.989704 0.36743,-0.116616 0.88552,-0.618388 1.15133,-1.115049 0.43452,-0.811906 0.39459,-0.99796 -0.39573,-1.843981 -0.48345,-0.517529 -1.57603,-1.350945 -2.42794,-1.852036 -1.93282,-1.136875 -3.24693,-0.919705 -3.83318,0.633476 -0.5089,1.348235 -0.66126,1.33511 -1.33504,-0.115016 -0.32654,-0.702811 -0.86059,-1.217179 -1.3337,-1.284554 -1.03487,-0.147377 -3.30375,1.038454 -4.60177,2.405122 -1.20062,1.264106 -1.07345,2.408859 0.33909,3.052457 0.48192,0.21958 0.87623,0.5364 0.87623,0.704045 0,0.516443 -2.9249699,0.336422 -3.4752799,-0.213891 -0.70363,-0.703621 -0.65251,-0.933658 0.20747,-0.933658 0.5836499,0 0.7261799,-0.242059 0.7261799,-1.233199 0,-0.955681 0.28709,-1.485261 1.27572,-2.353289 1.91769,-1.683756 3.37896,-2.328579 4.76663,-2.103392 0.89455,0.145166 1.30565,0.03691 1.5777,-0.415474 0.34498,-0.573667 0.39084,-0.573667 0.73583,0 0.27205,0.452381 0.68315,0.56064 1.5777,0.415474 1.38767,-0.225187 2.84894,0.419636 4.76663,2.103392 0.99938,0.877466 1.27572,1.393465 1.27572,2.382139 0,1.213381 0.042,1.252822 1.08926,1.022805 0.5991,-0.131584 1.08927,-0.151993 1.08927,-0.04535 0,0.321827 -1.82923,2.046711 -2.10426,1.984236 -0.14071,-0.03196 -0.78684,-0.124007 -1.43586,-0.20455 z m 7.42988,-1.078114 c -0.54178,-0.781787 -0.98505,-1.851334 -0.98505,-2.376772 0,-0.525438 -0.16468,-1.388502 -0.36597,-1.91792 -0.27997,-0.73638 -0.25864,-0.927342 0.0908,-0.812631 0.25121,0.08247 0.64064,0.882241 0.86539,1.777267 0.22477,0.895026 0.68401,2.159795 1.02056,2.810598 0.92199,1.78294 0.49535,2.137137 -0.6257,0.519458 z m -19.68414,-3.599085 c 1.18221,-0.911165 1.99699,-1.288207 1.99699,-0.924104 0,0.424457 -1.63907,1.510623 -2.25653,1.495343 -0.27405,-0.0068 -0.16694,-0.242531 0.25954,-0.571239 z m 9.9344,-0.112137 c -0.47144,-0.382209 -0.76908,-0.783453 -0.66144,-0.891655 0.10766,-0.108202 0.67953,0.198637 1.27081,0.681866 0.5913,0.483228 0.88895,0.884473 0.66145,0.891655 -0.2275,0.0072 -0.79937,-0.299658 -1.27082,-0.681866 z M 10.831647,23.424918 C 9.3307571,21.819027 8.0367171,19.888243 8.2909271,19.634029 c 0.29356,-0.29356 2.8276899,1.983735 3.5919199,3.227882 1.24088,2.020102 0.62094,2.35213 -1.0512,0.563007 z m 3.64128,-5.424031 c -0.10015,-0.162042 -0.0499,-0.304724 0.11167,-0.317069 0.16155,-0.01235 1.89714,-0.0717 3.85684,-0.13191 2.6171,-0.0804 3.4558,-0.0021 3.15895,0.294763 -0.46652,0.46661 -6.84904,0.604709 -7.12746,0.154216 z"
     id="path3742"
     inkscape:connector-curvature="0" />
</svg>
